# xmcd
#
# Track frame offsets:
#	150
#	19595
#	43475
#	52463
#	69026
#	89808
#	107007
#	125550
#	151477
#	164043
#	183202
#	195878
#
# Disc length: 2752 seconds
#
# Revision: 0
# Processed by: cddbd v1.5.2PL0 Copyright (c) Steve Scherf et al.
# Submitted via: EZCDAudioConverter 1.2.3.1
#
DISCID=a80abe0c
DTITLE=Peder af Ugglas - Blue Departure
DYEAR=2015
DGENRE=Rootsy
TTITLE0=Blue Departure
TTITLE1=Passing Places
TTITLE2=New Face
TTITLE3=Reminder
TTITLE4=Nordic Investigation
TTITLE5=Awakening
TTITLE6=Second Departure
TTITLE7=The Missing Piece
TTITLE8=Self Confident
TTITLE9=Peace of Mind
TTITLE10=Confusion
TTITLE11=Still Blue
EXTD=
EXTT0=
EXTT1=
EXTT2=
EXTT3=
EXTT4=
EXTT5=
EXTT6=
EXTT7=
EXTT8=
EXTT9=
EXTT10=
EXTT11=
PLAYORDER=
